<svg width="100%" height="100%" viewBox="0 0 203 52" fill="none" xmlns="http://www.w3.org/2000/svg">
<g clip-path="url(#clip0)">
<path d="M29.3632 44.7379C28.866 43.2927 28.4241 41.9587 27.9822 40.5691C25.9384 34.5662 23.9499 28.5632 21.9061 22.6158C21.7956 22.2823 21.8508 22.1156 22.0165 21.8377C23.4527 19.8923 24.8889 18.0025 26.3251 16.0571C26.3803 15.9459 26.4908 15.8347 26.6013 15.668C26.7118 16.0015 26.8222 16.2794 26.9327 16.5573C30.3022 26.6178 33.6717 36.6783 37.0965 46.7389C37.8698 48.9066 36.5441 51.4078 33.7822 51.4078C32.8431 51.4078 31.9041 51.4078 30.9651 51.4078H0.639536H0.0871582C0.197634 51.2411 0.252871 51.1299 0.308109 51.0187C1.74429 49.0733 3.23571 47.0724 4.67189 45.0714C4.89284 44.7935 5.11379 44.6823 5.44522 44.6823C13.1785 44.6823 20.967 44.6823 28.7003 44.6823H29.3632V44.7379Z" fill="#db654b"/>
<path d="M7.93045 8.21968C8.42759 9.66484 8.86949 10.9988 9.31139 12.3884C11.3552 18.3914 13.3438 24.3943 15.3875 30.3973C15.498 30.6752 15.4428 30.8975 15.2218 31.1755C13.7857 33.1209 12.3495 35.0663 10.9133 37.0117C10.8581 37.1228 10.7476 37.234 10.6371 37.3452C10.5266 37.0117 10.4162 36.7338 10.3057 36.4558C6.99141 26.2842 3.62191 16.2236 0.197166 6.16311C-0.520925 3.99538 0.749543 1.49414 3.56667 1.49414C4.50571 1.49414 5.44475 1.49414 6.38379 1.49414H36.7093H37.2617C37.1512 1.66089 37.096 1.77206 37.0407 1.88322C35.6046 3.82863 34.1131 5.82961 32.677 7.77502C32.456 8.05293 32.2351 8.1641 31.8484 8.1641C24.1151 8.1641 16.3266 8.1641 8.5933 8.1641H7.93045V8.21968Z" fill="#cd051b"/>
<path d="M75.8 7V21H74.44L65.7 10V21H64.1V7H65.46L74.2 18.04V7H75.8ZM88.0984 21H79.9984V7H87.8984V8.6H81.6984V13.12H87.2984V14.72H81.6984V19.4H88.0984V21ZM90.4023 14C90.4023 11.9733 91.0757 10.2667 92.4223 8.88C93.769 7.49333 95.4757 6.8 97.5423 6.8C99.5957 6.8 101.296 7.47333 102.642 8.82C104.002 10.1667 104.682 11.8933 104.682 14C104.682 16.0533 104.002 17.7733 102.642 19.16C101.282 20.52 99.5823 21.2 97.5423 21.2C95.5023 21.2 93.7957 20.5267 92.4223 19.18C91.0757 17.8333 90.4023 16.1067 90.4023 14ZM92.2023 14C92.2023 15.5733 92.7157 16.9067 93.7423 18C94.769 19.0667 96.0357 19.6 97.5423 19.6C99.1157 19.6 100.396 19.0667 101.382 18C102.382 16.9333 102.882 15.6 102.882 14C102.882 12.4 102.369 11.0667 101.342 10C100.316 8.93333 99.049 8.4 97.5423 8.4C96.009 8.4 94.7357 8.92667 93.7223 9.98C92.709 11.0333 92.2023 12.3733 92.2023 14ZM118.364 17.42C118.364 16.9533 118.237 16.5467 117.984 16.2C117.73 15.8533 117.404 15.5733 117.004 15.36C116.604 15.1333 116.157 14.92 115.664 14.72C115.184 14.52 114.697 14.3067 114.204 14.08C113.724 13.84 113.284 13.5733 112.884 13.28C112.484 12.9867 112.157 12.6 111.904 12.12C111.65 11.64 111.524 11.0867 111.524 10.46C111.524 9.43333 111.904 8.56667 112.664 7.86C113.437 7.15333 114.464 6.8 115.744 6.8C116.53 6.8 117.27 6.93333 117.964 7.2C118.657 7.46667 119.204 7.82 119.604 8.26L118.684 9.54C117.924 8.78 116.977 8.4 115.844 8.4C115.07 8.4 114.457 8.58667 114.004 8.96C113.55 9.33333 113.324 9.83333 113.324 10.46C113.324 10.9267 113.45 11.3333 113.704 11.68C113.957 12.0267 114.284 12.3067 114.684 12.52C115.084 12.7333 115.524 12.94 116.004 13.14C116.497 13.3267 116.984 13.5333 117.464 13.76C117.957 13.9867 118.404 14.2467 118.804 14.54C119.204 14.82 119.53 15.2067 119.784 15.7C120.037 16.1933 120.164 16.76 120.164 17.4C120.164 18.5467 119.724 19.4667 118.844 20.16C117.99 20.8533 116.91 21.2 115.604 21.2C114.684 21.2 113.804 21.0133 112.964 20.64C112.124 20.2667 111.53 19.7533 111.184 19.1L112.164 17.94C112.55 18.4467 113.064 18.8533 113.704 19.16C114.344 19.4533 114.984 19.6 115.624 19.6C116.41 19.6 117.064 19.4067 117.584 19.02C118.104 18.62 118.364 18.0867 118.364 17.42ZM126.26 8.6H121.36V7H132.86V8.6H127.96V21H126.26V8.6ZM133.688 21H131.968L137.988 6.92H139.448L145.468 21H143.648L141.848 16.76H135.468L133.688 21ZM141.188 15.16L138.668 9.18L136.148 15.16H141.188ZM157.121 18.36L157.801 19.64C157.335 20.12 156.701 20.5 155.901 20.78C155.101 21.06 154.261 21.2 153.381 21.2C151.288 21.2 149.575 20.5467 148.241 19.24C146.935 17.9067 146.281 16.16 146.281 14C146.281 11.92 146.908 10.2067 148.161 8.86C149.415 7.48667 151.115 6.8 153.261 6.8C155.035 6.8 156.455 7.25333 157.521 8.16L156.741 9.44C155.808 8.74667 154.655 8.4 153.281 8.4C151.761 8.4 150.515 8.92 149.541 9.96C148.568 10.9867 148.081 12.3333 148.081 14C148.081 15.6667 148.581 17.02 149.581 18.06C150.608 19.0867 151.928 19.6 153.541 19.6C154.901 19.6 156.095 19.1867 157.121 18.36ZM168.686 7H170.746L164.506 13.58L171.066 21H168.886L162.546 13.7L168.686 7ZM162.206 21H160.506V7H162.206V21ZM67.1 33.6H62.2V32H73.7V33.6H68.8V46H67.1V33.6ZM84.0945 46H75.9945V32H83.8945V33.6H77.6945V38.12H83.2945V39.72H77.6945V44.4H84.0945V46ZM97.2384 43.36L97.9184 44.64C97.4518 45.12 96.8184 45.5 96.0184 45.78C95.2184 46.06 94.3784 46.2 93.4984 46.2C91.4051 46.2 89.6918 45.5467 88.3584 44.24C87.0518 42.9067 86.3984 41.16 86.3984 39C86.3984 36.92 87.0251 35.2067 88.2784 33.86C89.5318 32.4867 91.2318 31.8 93.3784 31.8C95.1518 31.8 96.5718 32.2533 97.6384 33.16L96.8584 34.44C95.9251 33.7467 94.7718 33.4 93.3984 33.4C91.8784 33.4 90.6318 33.92 89.6584 34.96C88.6851 35.9867 88.1984 37.3333 88.1984 39C88.1984 40.6667 88.6984 42.02 89.6984 43.06C90.7251 44.0867 92.0451 44.6 93.6584 44.6C95.0184 44.6 96.2118 44.1867 97.2384 43.36ZM111.723 46H110.023V39.66H102.323V46H100.623V32H102.323V38.06H110.023V32H111.723V46ZM127.616 32V46H126.256L117.516 35V46H115.916V32H117.276L126.016 43.04V32H127.616ZM130.715 39C130.715 36.9733 131.388 35.2667 132.735 33.88C134.082 32.4933 135.788 31.8 137.855 31.8C139.908 31.8 141.608 32.4733 142.955 33.82C144.315 35.1667 144.995 36.8933 144.995 39C144.995 41.0533 144.315 42.7733 142.955 44.16C141.595 45.52 139.895 46.2 137.855 46.2C135.815 46.2 134.108 45.5267 132.735 44.18C131.388 42.8333 130.715 41.1067 130.715 39ZM132.515 39C132.515 40.5733 133.028 41.9067 134.055 43C135.082 44.0667 136.348 44.6 137.855 44.6C139.428 44.6 140.708 44.0667 141.695 43C142.695 41.9333 143.195 40.6 143.195 39C143.195 37.4 142.682 36.0667 141.655 35C140.628 33.9333 139.362 33.4 137.855 33.4C136.322 33.4 135.048 33.9267 134.035 34.98C133.022 36.0333 132.515 37.3733 132.515 39ZM156.704 46H148.104V32H149.804V44.4H156.704V46ZM157.355 39C157.355 36.9733 158.029 35.2667 159.375 33.88C160.722 32.4933 162.429 31.8 164.495 31.8C166.549 31.8 168.249 32.4733 169.595 33.82C170.955 35.1667 171.635 36.8933 171.635 39C171.635 41.0533 170.955 42.7733 169.595 44.16C168.235 45.52 166.535 46.2 164.495 46.2C162.455 46.2 160.749 45.5267 159.375 44.18C158.029 42.8333 157.355 41.1067 157.355 39ZM159.155 39C159.155 40.5733 159.669 41.9067 160.695 43C161.722 44.0667 162.989 44.6 164.495 44.6C166.069 44.6 167.349 44.0667 168.335 43C169.335 41.9333 169.835 40.6 169.835 39C169.835 37.4 169.322 36.0667 168.295 35C167.269 33.9333 166.002 33.4 164.495 33.4C162.962 33.4 161.689 33.9267 160.675 34.98C159.662 36.0333 159.155 37.3733 159.155 39ZM184.385 40.48H180.605V38.88H185.985V44.26C185.385 44.86 184.591 45.3333 183.605 45.68C182.605 46.0267 181.651 46.2 180.745 46.2C178.571 46.2 176.845 45.5467 175.565 44.24C174.285 42.9333 173.645 41.1867 173.645 39C173.645 36.96 174.278 35.2467 175.545 33.86C176.798 32.4867 178.458 31.8 180.525 31.8C182.311 31.8 183.778 32.2533 184.925 33.16L184.185 34.52C183.358 33.7733 182.205 33.4 180.725 33.4C179.165 33.4 177.891 33.9133 176.905 34.94C175.931 35.9533 175.445 37.3067 175.445 39C175.445 40.7067 175.931 42.0667 176.905 43.08C177.878 44.0933 179.171 44.6 180.785 44.6C181.425 44.6 182.098 44.4867 182.805 44.26C183.471 44.02 183.998 43.72 184.385 43.36V40.48ZM197.196 32H199.056L194.036 40V46H192.336V40L187.376 32H189.336L193.256 38.4L197.196 32Z" fill="#1D1D1D"/>
</g>
<defs>
<clipPath id="clip0">
<rect width="203" height="52" fill="white"/>
</clipPath>
</defs>
</svg>
